<?xml version="1.0" encoding="utf-8" ?><svg xmlns="http://www.w3.org/2000/svg" xmlns:xlink="http://www.w3.org/1999/xlink" width="1024" height="1024" viewBox="0 0 1024 1024"><path fill="white" d="M0 0L1024 0L1024 1024L0 1024L0 0Z"/><path fill="#1B396B" d="M339.025 393.952C404.204 388.695 461.286 437.314 466.465 502.499C471.645 567.684 422.957 624.708 357.766 629.809C292.685 634.902 235.779 586.314 230.608 521.239C225.438 456.164 273.957 399.201 339.025 393.952Z"/><path fill="white" d="M248.388 550.924C237.857 522.676 238.553 494.244 251.172 466.702C263.107 441.173 284.596 421.358 311.007 411.528C338.162 401.58 368.156 402.83 394.39 415.001C420.094 427.129 439.969 448.917 449.691 475.625C459.274 502.524 457.677 532.141 445.258 557.854C444.304 559.868 443.315 561.866 442.294 563.846C414.274 565.961 387.524 562.403 364.995 544.059C347.927 530.162 339.02 503.509 355.153 485.481C355.892 484.643 356.667 483.837 357.476 483.066C334.03 485.34 321.646 503.057 324.614 525.646C330.514 570.553 382.86 587.145 420.715 590.678C417.61 593.382 414.698 595.96 411.401 598.444C405.719 603.075 396.863 607.913 390.157 610.732C363.919 621.535 334.495 621.64 308.18 611.024C280.185 599.539 260.054 578.681 248.388 550.924Z"/><path fill="#1C90C8" d="M248.388 550.924L248.723 550.088C249.894 547.1 251.117 542.19 251.999 538.914C263.962 494.462 304.915 446.712 355.588 463.865C363.751 466.628 369.908 472.116 375.483 478.424C329.122 462.458 302.518 508.415 322.791 547.505C340.296 581.257 376.654 591.731 411.401 598.444C405.719 603.075 396.863 607.913 390.157 610.732C363.919 621.535 334.495 621.64 308.18 611.024C280.185 599.539 260.054 578.681 248.388 550.924Z"/><path fill="#67C0E5" d="M355.128 433.232C381.255 433.021 409.643 443.671 421.325 468.618C410.86 460.546 401.761 459.01 388.938 458.532C394.559 464.238 397.947 471.77 398.486 479.761C399.081 489.14 395.704 495.991 389.63 502.78C390.485 481.575 381.763 468.448 363.485 458.383C326.97 441.365 292.342 459.698 268.274 488.079C271.627 481.643 278.84 471.824 283.878 466.617C304.447 445.36 325.852 434.461 355.128 433.232Z"/><path fill="#67C0E5" d="M404.084 468.456C404.691 468.545 404.792 468.545 405.472 468.739C412.563 470.779 418.538 475.581 422.057 482.067C426.276 490.016 426.126 496.647 423.547 504.889L422.751 505.227C418.825 495.201 416.615 492.025 406.386 487.254C407.07 478.949 406.697 476.383 404.084 468.456Z"/><path fill="#1B396B" d="M664.914 516.574C687.794 512.86 709.353 528.398 713.064 551.279C716.776 574.159 701.234 595.716 678.353 599.424C655.476 603.131 633.925 587.594 630.214 564.717C626.504 541.841 642.039 520.288 664.914 516.574Z"/><path fill="white" d="M667.399 532.898C676.41 531.377 685.542 534.823 691.302 541.918C697.061 549.013 698.557 558.659 695.216 567.165C691.875 575.671 684.214 581.72 675.166 582.999C661.434 584.939 648.691 575.485 646.566 561.78C644.442 548.075 653.724 535.206 667.399 532.898Z"/><path fill="#1B396B" d="M571.06 516.61C593.972 513.182 615.318 528.996 618.713 551.913C622.107 574.83 606.262 596.153 583.34 599.514C560.466 602.868 539.196 587.062 535.809 564.193C532.421 541.323 548.195 520.031 571.06 516.61Z"/><path fill="white" d="M573.276 532.942C587.119 530.744 600.119 540.196 602.297 554.042C604.475 567.888 595.005 580.874 581.156 583.033C567.334 585.187 554.38 575.74 552.206 561.921C550.033 548.103 559.461 535.135 573.276 532.942Z"/><path fill="#1B396B" d="M535.059 418.262C555.579 417.284 573.029 433.078 574.098 453.594C575.166 474.109 559.449 491.63 538.939 492.788C518.299 493.954 500.645 478.118 499.57 457.474C498.496 436.829 514.41 419.245 535.059 418.262Z"/><path fill="white" d="M534.609 432.89C546.955 431.691 557.978 440.623 559.365 452.95C560.752 465.277 551.988 476.434 539.684 478.008C531.557 479.048 523.499 475.628 518.601 469.059C513.704 462.49 512.725 453.792 516.041 446.299C519.357 438.806 526.454 433.682 534.609 432.89Z"/><path fill="#1B396B" d="M587.432 419.841C599.388 419.814 626.214 417.753 634.913 424.525C652.697 438.37 647.047 464.375 624.395 469.491C619.022 470.571 608.238 470.378 602.526 470.396L602.53 491.032L587.478 491.068L587.432 419.841Z"/><path fill="white" d="M602.488 432.991C611.525 433.04 627.36 430.506 629.596 442.484C630.446 447.042 629.466 449.879 626.867 453.582C620.499 458.669 610.821 457.284 602.514 457.238L602.488 432.991Z"/><path fill="#1B396B" d="M724.29 419.907C729.022 419.926 733.754 419.912 738.486 419.866C749.466 433.05 762.471 451.549 773.486 465.666L773.488 419.943L788.365 419.902C788.508 442.861 788.981 468.253 788.375 491.047L775.127 491.054L739.373 444.588L739.364 491.07L724.329 491.09L724.29 419.907Z"/><path fill="#1B396B" d="M748.552 517.153C761.257 515.36 773.203 519.055 783.654 526.112C781.196 530.585 778.797 535.09 776.457 539.625C770.272 535.941 745.029 522.527 743.163 540.219C742.467 546.816 757.488 549.763 762.895 551.226C773.355 554.054 785.483 559.004 785.974 572.054C786.71 591.153 773.187 598.619 756.258 599.037C742.547 598.814 732.744 594.809 722.128 586.348C725.523 582.144 728.035 578.323 731.019 573.849C739.222 580.468 748.189 585.346 759.112 584.398C761.499 584.252 765.857 582.924 767.138 580.579C773.175 569.565 758.752 566.75 751.187 564.816C741.008 562.214 728.082 558.244 726.299 546.009C723.909 529.619 732.628 519.778 748.552 517.153Z"/><path fill="#1B396B" d="M656.351 419.825L710.483 419.84L710.506 433.08L671.329 432.984L671.336 448.57C682.75 448.745 694.165 448.808 705.58 448.76L705.673 461.828C695.507 461.696 685.062 461.801 674.875 461.798C673.476 461.754 673.532 461.735 672.193 462.125C670.609 464.749 671.393 474.179 671.465 477.917C684.726 477.942 697.988 477.897 711.248 477.78L711.243 491.087L656.39 491.017L656.351 419.825Z"/><path fill="#1B396B" d="M503.941 518.278L520.981 518.344L521.097 597.747L503.956 597.893L503.941 518.278Z"/></svg>